<?xml version="1.0" encoding="utf-8"?>
<!-- Generator: Adobe Illustrator 27.9.0, SVG Export Plug-In . SVG Version: 6.00 Build 0)  -->
<svg version="1.1" id="Layer_1" xmlns:xodm="http://www.corel.com/coreldraw/odm/2003"
	 xmlns="http://www.w3.org/2000/svg" xmlns:xlink="http://www.w3.org/1999/xlink" x="0px" y="0px" viewBox="0 0 670 170"
	 style="enable-background:new 0 0 670 170;" xml:space="preserve">
<style type="text/css">
	.st0{fill-rule:evenodd;clip-rule:evenodd;fill:#E22325;}
	.st1{fill:#199353;}
</style>
<g id="Layer_x0020_1">
	<path class="st0" d="M25.6,139.7h92.9c1.3,0,2.5-0.7,3.2-1.8c0.7-1.2,0.6-2.5-0.1-3.7L116,125c-0.7-1.1-1.8-1.8-3.1-1.8H55.7
		c-1.3,0-2.5-0.7-3.2-1.8c-0.7-1.2-0.6-2.5,0.1-3.7l15-24.8c0.7-1.1,1.8-1.8,3.1-1.8c1.3,0,2.4,0.6,3.1,1.8l11.9,19.7
		c0.7,1.1,1.8,1.8,3.1,1.8l14.5,0c1.3,0,2.5-0.7,3.2-1.8c0.7-1.2,0.6-2.5,0-3.7L83.2,70.6c-0.7-1.2-0.7-2.6,0-3.7L96.4,45
		c0.7-1.2,0.7-2.6,0-3.7l-6-10c-0.7-1.1-1.8-1.8-3.1-1.8c-1.3,0-2.4,0.6-3.1,1.8L22.5,134.2c-0.7,1.2-0.7,2.5,0,3.7
		C23.1,139,24.2,139.7,25.6,139.7L25.6,139.7z M92.6,71.2l25.1,41.6c0.6,0.9,1.4,1.5,2.5,1.7c1.1,0.2,2.1-0.1,2.9-0.8l8-6.5
		c0.8-0.7,1.8-0.9,2.9-0.8c1.1,0.2,1.9,0.8,2.5,1.7l17.8,29.7c0.7,1.1,1.8,1.8,3.1,1.8h13.4c1.3,0,2.5-0.7,3.2-1.8
		c0.7-1.2,0.6-2.5-0.1-3.7l-34.6-57.4c-0.6-0.9-1.4-1.5-2.5-1.7c-1.1-0.2-2.1,0.1-2.9,0.8l-8.1,6.6c-0.8,0.7-1.8,0.9-2.9,0.8
		c-1.1-0.2-1.9-0.8-2.5-1.7l-15-25c-0.7-1.1-1.8-1.8-3.1-1.8c-1.3,0-2.4,0.6-3.1,1.8l-6.6,11C91.9,68.6,91.9,70,92.6,71.2L92.6,71.2
		z"/>
	<path class="st1" d="M261.8,139.7l-5.4-13.4h-41.5l-5.4,13.4h-24.9l40-90h22.4l40,90H261.8L261.8,139.7z M222.8,106.9h25.7
		l-10.7-26.2l-2.2-5.9l-2.2,5.9L222.8,106.9L222.8,106.9z"/>
	<polygon id="_1" class="st1" points="317.3,49.7 317.3,139.7 294.2,139.7 294.2,49.7 	"/>
	<polygon id="_2" class="st1" points="431.6,49.7 431.6,139.7 408.5,139.7 408.5,86.1 406.8,89 385.1,114.9 379.4,114.9 357.7,89 
		355.9,86 355.9,139.7 332.7,139.7 332.7,49.7 349.3,49.7 379.5,83.9 382.2,87.9 384.8,83.9 415,49.7 	"/>
	<path id="_3" class="st1" d="M479.3,117.1v17.8c-4.7,3.7-10.4,5.5-17.1,5.5c-6,0-11.1-1.9-15.1-5.6c-4-3.7-6-8.5-6-14.2
		c0-5.9,2.1-10.7,6.2-14.4c4.1-3.7,9.3-5.6,15.6-5.6c6.4,0,11.4,1.8,14.9,5.4l-5.2,6.7c-2.9-2.2-6.2-3.3-9.8-3.3c-3.7,0-6.6,1-8.6,3
		c-2,2-3,4.7-3,8.1c0,3.4,1,6.1,3,8.2c2,2.1,4.8,3.1,8.4,3.1c3.2,0,5.7-0.6,7.5-1.9v-4.2h-8.6v-8.5L479.3,117.1L479.3,117.1z"/>
	<path id="_4" class="st1" d="M510.5,139.7l-7.7-11.1h-7.7v11.1h-9.9v-38.5h20.6c4.5,0,8,1.2,10.6,3.7c2.5,2.5,3.8,5.6,3.8,9.6
		c0,2.8-0.6,5.2-1.9,7.4c-1.3,2.2-3.1,3.9-5.5,5.1l9.4,12.8H510.5L510.5,139.7z M495.1,109.8V120h8.6c4.3,0,6.4-1.8,6.4-5.3
		c0-1.7-0.5-2.9-1.5-3.7c-1-0.8-2.6-1.2-4.8-1.2H495.1z"/>
	<path id="_5" class="st1" d="M530.5,106.1c4.1-3.7,9.2-5.6,15.3-5.6c6.1,0,11.2,1.9,15.3,5.6c4.1,3.7,6.1,8.5,6.1,14.3
		c0,5.8-2,10.6-6.1,14.3c-4.1,3.7-9.2,5.6-15.3,5.6c-6.1,0-11.2-1.9-15.3-5.6c-4.1-3.7-6.1-8.5-6.1-14.3
		C524.3,114.7,526.4,109.9,530.5,106.1z M545.7,131.5c3.4,0,6.1-1,8.2-3.1c2.1-2,3.1-4.7,3.1-8c0-3.3-1-6-3.1-8
		c-2.1-2-4.8-3.1-8.2-3.1c-3.4,0-6.1,1-8.1,3.1c-2.1,2-3.1,4.7-3.1,8c0,3.3,1,6,3.1,8C539.6,130.5,542.3,131.5,545.7,131.5z"/>
	<path id="_6" class="st1" d="M608.5,101.2v22.1c0,5.3-1.7,9.5-5.1,12.5c-3.4,3.1-7.7,4.6-13,4.6c-5.4,0-9.7-1.5-13.1-4.6
		c-3.4-3.1-5.1-7.2-5.1-12.5v-22.1h10v22c0,2.6,0.8,4.6,2.4,6.1c1.6,1.4,3.5,2.2,5.9,2.2c2.3,0,4.3-0.7,5.8-2.2
		c1.5-1.4,2.3-3.5,2.3-6.1v-22H608.5L608.5,101.2z"/>
	<path id="_7" class="st1" d="M633.8,101.2c4.5,0,8,1.3,10.5,3.8c2.5,2.5,3.8,5.9,3.8,10.2c0,3.8-1.4,7-4.1,9.7
		c-2.7,2.7-6.4,4.1-11.1,4.1h-7.9v10.7H615v-38.5L633.8,101.2L633.8,101.2z M632.5,120.7c2,0,3.4-0.5,4.2-1.7
		c0.8-1.1,1.3-2.4,1.3-3.8c0-1.9-0.4-3.2-1.3-4.1c-0.9-0.8-2.2-1.3-4.1-1.3h-7.7v10.8L632.5,120.7L632.5,120.7z"/>
</g>
</svg>
