<?xml version="1.0" encoding="utf-8"?>
<!-- Generator: Adobe Illustrator 27.9.0, SVG Export Plug-In . SVG Version: 6.00 Build 0)  -->
<svg version="1.1" id="Layer_1" xmlns:xodm="http://www.corel.com/coreldraw/odm/2003"
	 xmlns="http://www.w3.org/2000/svg" xmlns:xlink="http://www.w3.org/1999/xlink" x="0px" y="0px" viewBox="0 0 149.1 27"
	 style="enable-background:new 0 0 149.1 27;" xml:space="preserve">
<style type="text/css">
	.st0{fill-rule:evenodd;clip-rule:evenodd;fill:#E22325;}
	.st1{fill:#199353;}
</style>
<g id="Layer_x0020_1">
	<path class="st0" d="M2,26.3h21.8c0.3,0,0.6-0.2,0.7-0.4c0.2-0.3,0.2-0.6,0-0.9l-1.3-2.1c-0.2-0.3-0.4-0.4-0.7-0.4H9
		c-0.3,0-0.6-0.2-0.7-0.4c-0.2-0.3-0.2-0.6,0-0.9l3.5-5.8c0.2-0.3,0.4-0.4,0.7-0.4s0.6,0.1,0.7,0.4l2.8,4.6c0.2,0.3,0.4,0.4,0.7,0.4
		l3.4,0c0.3,0,0.6-0.2,0.7-0.4c0.2-0.3,0.2-0.6,0-0.9l-5.4-9c-0.2-0.3-0.2-0.6,0-0.9l3.1-5.1c0.2-0.3,0.2-0.6,0-0.9l-1.4-2.3
		c-0.2-0.3-0.4-0.4-0.7-0.4c-0.3,0-0.6,0.1-0.7,0.4L1.2,25c-0.2,0.3-0.2,0.6,0,0.9C1.4,26.2,1.7,26.3,2,26.3L2,26.3z M17.7,10.3
		l5.9,9.8c0.1,0.2,0.3,0.4,0.6,0.4c0.3,0,0.5,0,0.7-0.2l1.9-1.5c0.2-0.2,0.4-0.2,0.7-0.2c0.3,0,0.5,0.2,0.6,0.4l4.2,7
		c0.2,0.3,0.4,0.4,0.7,0.4h3.2c0.3,0,0.6-0.2,0.7-0.4c0.2-0.3,0.2-0.6,0-0.9l-8.1-13.5c-0.1-0.2-0.3-0.4-0.6-0.4
		c-0.3,0-0.5,0-0.7,0.2l-1.9,1.6c-0.2,0.2-0.4,0.2-0.7,0.2c-0.3,0-0.5-0.2-0.6-0.4l-3.5-5.9c-0.2-0.3-0.4-0.4-0.7-0.4
		c-0.3,0-0.6,0.1-0.7,0.4l-1.6,2.6C17.5,9.7,17.5,10,17.7,10.3L17.7,10.3z"/>
	<path class="st1" d="M57.4,26.3l-1.3-3.1h-9.7l-1.3,3.1h-5.9l9.4-21.1h5.2l9.4,21.1H57.4L57.4,26.3z M48.2,18.6h6l-2.5-6.2
		l-0.5-1.4l-0.5,1.4L48.2,18.6L48.2,18.6z"/>
	<polygon id="_1" class="st1" points="70.4,5.2 70.4,26.3 65,26.3 65,5.2 	"/>
	<polygon id="_2" class="st1" points="97.2,5.2 97.2,26.3 91.8,26.3 91.8,13.8 91.4,14.4 86.3,20.5 85,20.5 79.9,14.4 79.5,13.7 
		79.5,26.3 74,26.3 74,5.2 77.9,5.2 85,13.2 85.6,14.2 86.2,13.2 93.3,5.2 	"/>
	<path id="_3" class="st1" d="M108.4,21v4.2c-1.1,0.9-2.4,1.3-4,1.3c-1.4,0-2.6-0.4-3.5-1.3c-0.9-0.9-1.4-2-1.4-3.3
		c0-1.4,0.5-2.5,1.5-3.4c1-0.9,2.2-1.3,3.7-1.3c1.5,0,2.7,0.4,3.5,1.3l-1.2,1.6c-0.7-0.5-1.4-0.8-2.3-0.8c-0.9,0-1.5,0.2-2,0.7
		c-0.5,0.5-0.7,1.1-0.7,1.9c0,0.8,0.2,1.4,0.7,1.9c0.5,0.5,1.1,0.7,2,0.7c0.7,0,1.3-0.2,1.8-0.5v-1h-2v-2L108.4,21L108.4,21z"/>
	<path id="_4" class="st1" d="M115.7,26.3l-1.8-2.6h-1.8v2.6h-2.3v-9h4.8c1.1,0,1.9,0.3,2.5,0.9c0.6,0.6,0.9,1.3,0.9,2.2
		c0,0.6-0.1,1.2-0.4,1.7c-0.3,0.5-0.7,0.9-1.3,1.2l2.2,3H115.7L115.7,26.3z M112.1,19.3v2.4h2c1,0,1.5-0.4,1.5-1.3
		c0-0.4-0.1-0.7-0.4-0.9c-0.2-0.2-0.6-0.3-1.1-0.3H112.1z"/>
	<path id="_5" class="st1" d="M120.4,18.5c1-0.9,2.2-1.3,3.6-1.3c1.4,0,2.6,0.4,3.6,1.3c1,0.9,1.4,2,1.4,3.4c0,1.4-0.5,2.5-1.4,3.4
		c-1,0.9-2.2,1.3-3.6,1.3c-1.4,0-2.6-0.4-3.6-1.3c-1-0.9-1.4-2-1.4-3.4C119,20.5,119.5,19.3,120.4,18.5z M124,24.4
		c0.8,0,1.4-0.2,1.9-0.7s0.7-1.1,0.7-1.9c0-0.8-0.2-1.4-0.7-1.9s-1.1-0.7-1.9-0.7c-0.8,0-1.4,0.2-1.9,0.7c-0.5,0.5-0.7,1.1-0.7,1.9
		c0,0.8,0.2,1.4,0.7,1.9C122.6,24.2,123.2,24.4,124,24.4z"/>
	<path id="_6" class="st1" d="M138.7,17.3v5.2c0,1.2-0.4,2.2-1.2,2.9c-0.8,0.7-1.8,1.1-3.1,1.1c-1.3,0-2.3-0.4-3.1-1.1
		c-0.8-0.7-1.2-1.7-1.2-2.9v-5.2h2.3v5.2c0,0.6,0.2,1.1,0.6,1.4c0.4,0.3,0.8,0.5,1.4,0.5c0.6,0,1-0.2,1.4-0.5
		c0.4-0.3,0.5-0.8,0.5-1.4v-5.2H138.7L138.7,17.3z"/>
	<path id="_7" class="st1" d="M144.7,17.3c1.1,0,1.9,0.3,2.5,0.9c0.6,0.6,0.9,1.4,0.9,2.4c0,0.9-0.3,1.6-1,2.3c-0.6,0.6-1.5,1-2.6,1
		h-1.9v2.5h-2.3v-9L144.7,17.3L144.7,17.3z M144.4,21.9c0.5,0,0.8-0.1,1-0.4c0.2-0.3,0.3-0.6,0.3-0.9c0-0.4-0.1-0.8-0.3-1
		c-0.2-0.2-0.5-0.3-1-0.3h-1.8v2.5L144.4,21.9L144.4,21.9z"/>
</g>
</svg>
